<svg width="1262" height="705" viewBox="0 0 1262 705" fill="none" xmlns="http://www.w3.org/2000/svg">
<path d="M43.082 41.494V130.606C43.082 133.213 43.556 134.398 44.504 134.398C45.452 134.398 45.926 133.213 45.926 130.606V88.42H88.586V127.288C88.586 155.491 72.233 171.37 43.793 171.37C15.827 171.37 0.422 155.965 0.422 127.288V44.575C0.422 15.898 15.827 0.729991 43.793 0.729991C72.233 0.729991 88.586 16.609 88.586 44.575V83.68H45.926V41.494C45.926 38.65 45.452 37.702 44.504 37.702C43.556 37.702 43.082 38.65 43.082 41.494ZM136.884 3.09999H179.544V169H136.884V102.403H134.04V169H91.38V3.09999H134.04V65.431H136.884V3.09999ZM182.338 3.09999H224.998V169H182.338V3.09999ZM316.097 59.98H273.437V41.494C273.437 38.887 272.963 37.702 272.015 37.702C271.067 37.702 270.593 38.887 270.593 41.494V54.766C270.593 61.639 271.067 62.824 289.316 73.015L295.715 76.57C311.831 85.576 316.097 96.478 316.097 124.207V127.288C316.097 155.491 299.744 171.37 271.304 171.37C243.101 171.37 227.933 155.965 227.933 127.288V112.12H270.593V130.606C270.593 133.213 271.067 134.398 272.015 134.398C272.963 134.398 273.437 133.213 273.437 130.843V116.86C273.437 109.987 272.963 109.039 256.61 99.796L249.026 95.53C232.436 86.287 227.933 74.437 227.933 46.708V44.575C227.933 15.898 243.338 0.729991 271.304 0.729991C299.744 0.729991 316.097 16.609 316.097 44.575V59.98ZM380.511 40.072H361.551V63.061H380.511V100.033H361.551V132.028H380.511V169H318.891V3.09999H380.511V40.072ZM383.464 3.09999H426.124V132.028H445.084V169H383.464V3.09999ZM447.111 3.09999H489.771V169H447.111V3.09999ZM542.002 3.09999H584.662V169H538.921L528.019 78.94H525.649L535.366 169H492.706V3.09999H538.447L550.297 94.108H552.667L542.002 3.09999ZM630.259 41.494V76.096H675.763V169H646.849V155.728H644.005C641.398 165.682 631.444 171.37 620.779 171.37C605.137 171.37 587.599 158.809 587.599 127.288V44.575C587.599 15.898 603.004 0.729991 630.97 0.729991C659.41 0.729991 675.763 16.609 675.763 44.575V71.356H633.103V41.494C633.103 38.65 632.629 37.702 631.681 37.702C630.733 37.702 630.259 38.65 630.259 41.494ZM630.259 103.588V130.606C630.259 133.213 630.733 134.398 631.681 134.398C632.629 134.398 633.103 133.213 633.103 130.606V103.588H630.259ZM716.514 3.09999H760.122C788.325 3.09999 804.678 17.794 804.678 43.864V45.049C804.678 69.934 790.932 82.732 780.504 82.732V85.576C790.458 85.576 807.048 100.744 807.048 125.155V128.236C807.048 153.832 789.273 169 760.122 169H716.514V3.09999ZM759.174 40.072V65.668H759.648C762.018 65.668 762.018 65.194 762.018 61.876V43.864C762.018 40.546 762.018 40.072 759.648 40.072H759.174ZM759.174 102.64V132.028H759.648C762.018 132.028 762.018 131.554 762.018 128.236V106.432C762.018 103.114 762.018 102.64 759.648 102.64H759.174ZM809.323 3.09999H852.931C881.134 3.09999 897.487 17.32 897.487 47.419V48.604C897.487 76.333 883.504 89.842 873.313 89.842V92.686C883.267 92.686 897.487 108.091 897.487 133.45V135.346C897.487 147.907 897.724 158.809 899.857 169H857.197C855.064 158.572 854.827 147.67 854.827 134.872V113.542C854.827 110.224 854.827 109.75 852.457 109.75H851.983V169H809.323V3.09999ZM851.983 40.072V72.778H852.457C854.827 72.778 854.827 72.304 854.827 68.986V43.627C854.827 40.546 854.827 40.072 852.457 40.072H851.983ZM908.632 3.09999H974.992L985.42 169H942.76V134.872H939.916V169H897.256L908.632 3.09999ZM939.916 97.9H942.76V77.518H939.916V97.9ZM1036.83 3.09999H1079.49V169H1033.75L1022.85 78.94H1020.48L1030.2 169H987.536V3.09999H1033.28L1045.13 94.108H1047.5L1036.83 3.09999ZM1082.43 3.09999H1126.04C1154.24 3.09999 1170.59 16.846 1170.59 44.575V127.525C1170.59 155.491 1154.24 169 1126.04 169H1082.43V3.09999ZM1125.33 40.072V132.028H1125.8C1127.93 132.028 1127.93 131.554 1127.93 128.236V43.864C1127.93 40.546 1127.93 40.072 1125.8 40.072H1125.33ZM1261.55 59.98H1218.89V41.494C1218.89 38.887 1218.42 37.702 1217.47 37.702C1216.52 37.702 1216.05 38.887 1216.05 41.494V54.766C1216.05 61.639 1216.52 62.824 1234.77 73.015L1241.17 76.57C1257.28 85.576 1261.55 96.478 1261.55 124.207V127.288C1261.55 155.491 1245.2 171.37 1216.76 171.37C1188.55 171.37 1173.39 155.965 1173.39 127.288V112.12H1216.05V130.606C1216.05 133.213 1216.52 134.398 1217.47 134.398C1218.42 134.398 1218.89 133.213 1218.89 130.843V116.86C1218.89 109.987 1218.42 109.039 1202.06 99.796L1194.48 95.53C1177.89 86.287 1173.39 74.437 1173.39 46.708V44.575C1173.39 15.898 1188.79 0.729991 1216.76 0.729991C1245.2 0.729991 1261.55 16.609 1261.55 44.575V59.98ZM0.422 181.1H43.082V347H0.422V181.1ZM95.3127 181.1H137.973V347H92.2317L81.3297 256.94H78.9597L88.6767 347H46.0167V181.1H91.7577L103.608 272.108H105.978L95.3127 181.1ZM225.755 181.1V218.072H204.425V347H161.765V218.072H140.435V181.1H225.755ZM228.164 222.575C228.164 193.898 243.569 178.73 271.535 178.73C299.975 178.73 316.328 194.609 316.328 222.575V305.288C316.328 333.491 299.975 349.37 271.535 349.37C243.569 349.37 228.164 333.965 228.164 305.288V222.575ZM270.824 219.494V308.606C270.824 311.213 271.298 312.398 272.246 312.398C273.194 312.398 273.668 311.213 273.668 308.606V219.494C273.668 216.65 273.194 215.702 272.246 215.702C271.298 215.702 270.824 216.65 270.824 219.494ZM357.079 181.1H399.739V347H357.079V181.1ZM445.334 219.494V308.606C445.334 311.213 445.808 312.398 446.756 312.398C447.704 312.398 448.178 311.213 448.178 308.606V266.42H490.838V305.288C490.838 333.491 474.485 349.37 446.045 349.37C418.079 349.37 402.674 333.965 402.674 305.288V222.575C402.674 193.898 418.079 178.73 446.045 178.73C474.485 178.73 490.838 194.609 490.838 222.575V261.68H448.178V219.494C448.178 216.65 447.704 215.702 446.756 215.702C445.808 215.702 445.334 216.65 445.334 219.494ZM493.632 222.575C493.632 193.898 509.037 178.73 537.003 178.73C565.443 178.73 581.796 194.609 581.796 222.575V305.288C581.796 333.491 565.443 349.37 537.003 349.37C509.037 349.37 493.632 333.965 493.632 305.288V222.575ZM536.292 219.494V308.606C536.292 311.213 536.766 312.398 537.714 312.398C538.662 312.398 539.136 311.213 539.136 308.606V219.494C539.136 216.65 538.662 215.702 537.714 215.702C536.766 215.702 536.292 216.65 536.292 219.494ZM633.886 181.1H676.546V347H630.805L619.903 256.94H617.533L627.25 347H584.59V181.1H630.331L642.181 272.108H644.551L633.886 181.1ZM679.483 181.1H722.143V347H679.483V181.1ZM767.737 219.494V308.606C767.737 311.213 768.211 312.398 769.159 312.398C770.107 312.398 770.581 311.213 770.581 308.606V266.42H813.241V305.288C813.241 333.491 796.888 349.37 768.448 349.37C740.482 349.37 725.077 333.965 725.077 305.288V222.575C725.077 193.898 740.482 178.73 768.448 178.73C796.888 178.73 813.241 194.609 813.241 222.575V261.68H770.581V219.494C770.581 216.65 770.107 215.702 769.159 215.702C768.211 215.702 767.737 216.65 767.737 219.494ZM0.422 359.1H43.082V525H0.422V359.1ZM46.0167 359.1H89.6247C117.828 359.1 134.181 372.846 134.181 400.575V483.525C134.181 511.491 117.828 525 89.6247 525H46.0167V359.1ZM88.9137 396.072V488.028H89.3877C91.5207 488.028 91.5207 487.554 91.5207 484.236V399.864C91.5207 396.546 91.5207 396.072 89.3877 396.072H88.9137ZM198.595 396.072H179.635V419.061H198.595V456.033H179.635V488.028H198.595V525H136.975V359.1H198.595V396.072ZM212.213 359.1H278.573L289.001 525H246.341V490.872H243.497V525H200.837L212.213 359.1ZM243.497 453.9H246.341V433.518H243.497V453.9ZM376.967 415.98H334.307V397.494C334.307 394.887 333.833 393.702 332.885 393.702C331.937 393.702 331.463 394.887 331.463 397.494V410.766C331.463 417.639 331.937 418.824 350.186 429.015L356.585 432.57C372.701 441.576 376.967 452.478 376.967 480.207V483.288C376.967 511.491 360.614 527.37 332.174 527.37C303.971 527.37 288.803 511.965 288.803 483.288V468.12H331.463V486.606C331.463 489.213 331.937 490.398 332.885 490.398C333.833 490.398 334.307 489.213 334.307 486.843V472.86C334.307 465.987 333.833 465.039 317.48 455.796L309.896 451.53C293.306 442.287 288.803 430.437 288.803 402.708V400.575C288.803 371.898 304.208 356.73 332.174 356.73C360.614 356.73 376.967 372.609 376.967 400.575V415.98ZM479.338 396.072H460.378V423.564H478.153V460.536H460.378V525H417.718V359.1H479.338V396.072ZM481.134 400.575C481.134 371.898 496.539 356.73 524.505 356.73C552.945 356.73 569.298 372.609 569.298 400.575V483.288C569.298 511.491 552.945 527.37 524.505 527.37C496.539 527.37 481.134 511.965 481.134 483.288V400.575ZM523.794 397.494V486.606C523.794 489.213 524.268 490.398 525.216 490.398C526.164 490.398 526.638 489.213 526.638 486.606V397.494C526.638 394.65 526.164 393.702 525.216 393.702C524.268 393.702 523.794 394.65 523.794 397.494ZM572.092 359.1H615.7C643.903 359.1 660.256 373.32 660.256 403.419V404.604C660.256 432.333 646.273 445.842 636.082 445.842V448.686C646.036 448.686 660.256 464.091 660.256 489.45V491.346C660.256 503.907 660.493 514.809 662.626 525H619.966C617.833 514.572 617.596 503.67 617.596 490.872V469.542C617.596 466.224 617.596 465.75 615.226 465.75H614.752V525H572.092V359.1ZM614.752 396.072V428.778H615.226C617.596 428.778 617.596 428.304 617.596 424.986V399.627C617.596 396.546 617.596 396.072 615.226 396.072H614.752ZM62.042 574.072H43.082V597.061H62.042V634.033H43.082V666.028H62.042V703H0.422V537.1H62.042V574.072ZM75.6602 537.1H142.02L152.448 703H109.788V668.872H106.944V703H64.2842L75.6602 537.1ZM106.944 631.9H109.788V611.518H106.944V631.9ZM154.565 537.1H198.173C226.376 537.1 242.729 551.32 242.729 581.419V582.604C242.729 610.333 228.746 623.842 218.555 623.842V626.686C228.509 626.686 242.729 642.091 242.729 667.45V669.346C242.729 681.907 242.966 692.809 245.099 703H202.439C200.306 692.572 200.069 681.67 200.069 668.872V647.542C200.069 644.224 200.069 643.75 197.699 643.75H197.225V703H154.565V537.1ZM197.225 574.072V606.778H197.699C200.069 606.778 200.069 606.304 200.069 602.986V577.627C200.069 574.546 200.069 574.072 197.699 574.072H197.225ZM330.369 537.1V574.072H309.039V703H266.379V574.072H245.049V537.1H330.369ZM378.281 537.1H420.941V703H378.281V636.403H375.437V703H332.777V537.1H375.437V599.431H378.281V537.1ZM423.735 682.618C423.735 668.635 430.845 661.288 444.117 661.288C457.152 661.288 464.499 669.109 464.499 683.092C464.499 696.601 457.389 704.185 444.117 704.185C430.845 704.185 423.735 696.601 423.735 682.618Z" fill="white"/>
</svg>
