<svg width="322" height="348" viewBox="0 0 322 348" fill="none" xmlns="http://www.w3.org/2000/svg">
<path d="M17.3981 16.6764V51.8468C17.3981 52.8757 17.5852 53.3434 17.9593 53.3434C18.3335 53.3434 18.5206 52.8757 18.5206 51.8468V35.197H35.3574V50.5373C35.3574 61.6683 28.9033 67.9354 17.6787 67.9354C6.64121 67.9354 0.561229 61.8554 0.561229 50.5373V17.8924C0.561229 6.57432 6.64121 0.58788 17.6787 0.58788C28.9033 0.58788 35.3574 6.85494 35.3574 17.8924V33.3262H18.5206V16.6764C18.5206 15.554 18.3335 15.1798 17.9593 15.1798C17.5852 15.1798 17.3981 15.554 17.3981 16.6764ZM54.4195 1.52326H71.2564V67H54.4195V40.7158H53.297V67H36.4602V1.52326H53.297V26.1238H54.4195V1.52326ZM72.3591 1.52326H89.196V67H72.3591V1.52326ZM125.15 23.9724H108.314V16.6764C108.314 15.6475 108.126 15.1798 107.752 15.1798C107.378 15.1798 107.191 15.6475 107.191 16.6764V21.9146C107.191 24.6272 107.378 25.0949 114.581 29.117L117.106 30.5201C123.467 34.0746 125.15 38.3773 125.15 49.3213V50.5373C125.15 61.6683 118.696 67.9354 107.472 67.9354C96.3407 67.9354 90.3542 61.8554 90.3542 50.5373V44.5508H107.191V51.8468C107.191 52.8757 107.378 53.3434 107.752 53.3434C108.126 53.3434 108.314 52.8757 108.314 51.9403V46.4216C108.314 43.709 108.126 43.3348 101.672 39.6868L98.6791 38.0032C92.1315 34.3552 90.3542 29.6783 90.3542 18.7343V17.8924C90.3542 6.57432 96.4342 0.58788 107.472 0.58788C118.696 0.58788 125.15 6.85494 125.15 17.8924V23.9724ZM150.573 16.1152H143.09V25.1884H150.573V39.7804H143.09V52.408H150.573V67H126.253V1.52326H150.573V16.1152ZM151.739 1.52326H168.576V52.408H176.059V67H151.739V1.52326ZM176.859 1.52326H193.696V67H176.859V1.52326ZM214.31 1.52326H231.147V67H213.094L208.791 31.4555H207.856L211.691 67H194.854V1.52326H212.907L217.584 37.4419H218.519L214.31 1.52326ZM249.143 16.6764V30.333H267.102V67H255.69V61.7619H254.568C253.539 65.6905 249.61 67.9354 245.401 67.9354C239.228 67.9354 232.306 62.9779 232.306 50.5373V17.8924C232.306 6.57432 238.386 0.58788 249.423 0.58788C260.648 0.58788 267.102 6.85494 267.102 17.8924V28.4623H250.265V16.6764C250.265 15.554 250.078 15.1798 249.704 15.1798C249.33 15.1798 249.143 15.554 249.143 16.6764ZM249.143 41.1835V51.8468C249.143 52.8757 249.33 53.3434 249.704 53.3434C250.078 53.3434 250.265 52.8757 250.265 51.8468V41.1835H249.143ZM0.561229 71.5233H17.7723C28.9033 71.5233 35.3574 77.3226 35.3574 87.6118V88.0795C35.3574 97.901 29.9322 102.952 25.8165 102.952V104.075C29.7451 104.075 36.2928 110.061 36.2928 119.695V120.911C36.2928 131.014 29.2775 137 17.7723 137H0.561229V71.5233ZM17.3981 86.1152V96.2173H17.5852C18.5206 96.2173 18.5206 96.0303 18.5206 94.7207V87.6118C18.5206 86.3023 18.5206 86.1152 17.5852 86.1152H17.3981ZM17.3981 110.809V122.408H17.5852C18.5206 122.408 18.5206 122.221 18.5206 120.911V112.306C18.5206 110.996 18.5206 110.809 17.5852 110.809H17.3981ZM37.1909 71.5233H54.402C65.533 71.5233 71.9871 77.1356 71.9871 89.0149V89.4826C71.9871 100.427 66.4684 105.758 62.4462 105.758V106.881C66.3749 106.881 71.9871 112.961 71.9871 122.969V123.718C71.9871 128.675 72.0807 132.978 72.9225 137H56.0856C55.2438 132.884 55.1503 128.582 55.1503 123.53V115.112C55.1503 113.803 55.1503 113.615 54.2149 113.615H54.0278V137H37.1909V71.5233ZM54.0278 86.1152V99.0235H54.2149C55.1503 99.0235 55.1503 98.8364 55.1503 97.5269V87.5183C55.1503 86.3023 55.1503 86.1152 54.2149 86.1152H54.0278ZM76.3856 71.5233H102.576L106.692 137H89.8551V123.53H88.7327V137H71.8958L76.3856 71.5233ZM88.7327 108.939H89.8551V100.894H88.7327V108.939ZM126.983 71.5233H143.82V137H125.767L121.464 101.455H120.529L124.364 137H107.527V71.5233H125.58L130.257 107.442H131.192L126.983 71.5233ZM144.979 71.5233H162.19C173.321 71.5233 179.775 76.9485 179.775 87.8924V120.631C179.775 131.668 173.321 137 162.19 137H144.979V71.5233ZM161.91 86.1152V122.408H162.097C162.938 122.408 162.938 122.221 162.938 120.911V87.6118C162.938 86.3023 162.938 86.1152 162.097 86.1152H161.91ZM215.674 93.9724H198.837V86.6764C198.837 85.6475 198.65 85.1798 198.276 85.1798C197.902 85.1798 197.715 85.6475 197.715 86.6764V91.9146C197.715 94.6272 197.902 95.0949 205.104 99.117L207.63 100.52C213.991 104.075 215.674 108.377 215.674 119.321V120.537C215.674 131.668 209.22 137.935 197.996 137.935C186.864 137.935 180.878 131.855 180.878 120.537V114.551H197.715V121.847C197.715 122.876 197.902 123.343 198.276 123.343C198.65 123.343 198.837 122.876 198.837 121.94V116.422C198.837 113.709 198.65 113.335 192.196 109.687L189.203 108.003C182.655 104.355 180.878 99.6783 180.878 88.7343V87.8924C180.878 76.5743 186.958 70.5879 197.996 70.5879C209.22 70.5879 215.674 76.8549 215.674 87.8924V93.9724ZM0.561229 141.523H17.3981V207H0.561229V141.523ZM38.0123 141.523H54.8492V207H36.7963L32.4936 171.455H31.5582L35.3932 207H18.5564V141.523H36.6092L41.2862 177.442H42.2215L38.0123 141.523ZM89.4949 141.523V156.115H81.0764V207H64.2395V156.115H55.8211V141.523H89.4949ZM90.4456 157.892C90.4456 146.574 96.5256 140.588 107.563 140.588C118.788 140.588 125.242 146.855 125.242 157.892V190.537C125.242 201.668 118.788 207.935 107.563 207.935C96.5256 207.935 90.4456 201.855 90.4456 190.537V157.892ZM107.282 156.676V191.847C107.282 192.876 107.47 193.343 107.844 193.343C108.218 193.343 108.405 192.876 108.405 191.847V156.676C108.405 155.554 108.218 155.18 107.844 155.18C107.47 155.18 107.282 155.554 107.282 156.676ZM141.325 141.523H158.162V207H141.325V141.523ZM176.157 156.676V191.847C176.157 192.876 176.344 193.343 176.718 193.343C177.093 193.343 177.28 192.876 177.28 191.847V175.197H194.117V190.537C194.117 201.668 187.662 207.935 176.438 207.935C165.4 207.935 159.32 201.855 159.32 190.537V157.892C159.32 146.574 165.4 140.588 176.438 140.588C187.662 140.588 194.117 146.855 194.117 157.892V173.326H177.28V156.676C177.28 155.554 177.093 155.18 176.718 155.18C176.344 155.18 176.157 155.554 176.157 156.676ZM195.219 157.892C195.219 146.574 201.299 140.588 212.337 140.588C223.561 140.588 230.016 146.855 230.016 157.892V190.537C230.016 201.668 223.561 207.935 212.337 207.935C201.299 207.935 195.219 201.855 195.219 190.537V157.892ZM212.056 156.676V191.847C212.056 192.876 212.243 193.343 212.617 193.343C212.992 193.343 213.179 192.876 213.179 191.847V156.676C213.179 155.554 212.992 155.18 212.617 155.18C212.243 155.18 212.056 155.554 212.056 156.676ZM250.574 141.523H267.411V207H249.358L245.055 171.455H244.12L247.955 207H231.118V141.523H249.171L253.848 177.442H254.783L250.574 141.523ZM268.57 141.523H285.407V207H268.57V141.523ZM303.402 156.676V191.847C303.402 192.876 303.589 193.343 303.963 193.343C304.337 193.343 304.525 192.876 304.525 191.847V175.197H321.361V190.537C321.361 201.668 314.907 207.935 303.683 207.935C292.645 207.935 286.565 201.855 286.565 190.537V157.892C286.565 146.574 292.645 140.588 303.683 140.588C314.907 140.588 321.361 146.855 321.361 157.892V173.326H304.525V156.676C304.525 155.554 304.337 155.18 303.963 155.18C303.589 155.18 303.402 155.554 303.402 156.676ZM0.561229 211.523H17.3981V277H0.561229V211.523ZM18.5564 211.523H35.7674C46.8984 211.523 53.3526 216.948 53.3526 227.892V260.631C53.3526 271.668 46.8984 277 35.7674 277H18.5564V211.523ZM35.4868 226.115V262.408H35.6739C36.5157 262.408 36.5157 262.221 36.5157 260.911V227.612C36.5157 226.302 36.5157 226.115 35.6739 226.115H35.4868ZM78.7752 226.115H71.2922V235.188H78.7752V249.78H71.2922V262.408H78.7752V277H54.4553V211.523H78.7752V226.115ZM84.15 211.523H110.341L114.456 277H97.6195V263.53H96.4971V277H79.6602L84.15 211.523ZM96.4971 248.939H97.6195V240.894H96.4971V248.939ZM149.174 233.972H132.338V226.676C132.338 225.648 132.15 225.18 131.776 225.18C131.402 225.18 131.215 225.648 131.215 226.676V231.915C131.215 234.627 131.402 235.095 138.605 239.117L141.13 240.52C147.491 244.075 149.174 248.377 149.174 259.321V260.537C149.174 271.668 142.72 277.935 131.496 277.935C120.365 277.935 114.378 271.855 114.378 260.537V254.551H131.215V261.847C131.215 262.876 131.402 263.343 131.776 263.343C132.15 263.343 132.338 262.876 132.338 261.94V256.422C132.338 253.709 132.15 253.335 125.696 249.687L122.703 248.003C116.155 244.355 114.378 239.678 114.378 228.734V227.892C114.378 216.574 120.458 210.588 131.496 210.588C142.72 210.588 149.174 216.855 149.174 227.892V233.972ZM189.578 226.115H182.095V236.966H189.11V251.558H182.095V277H165.258V211.523H189.578V226.115ZM190.287 227.892C190.287 216.574 196.367 210.588 207.404 210.588C218.629 210.588 225.083 216.855 225.083 227.892V260.537C225.083 271.668 218.629 277.935 207.404 277.935C196.367 277.935 190.287 271.855 190.287 260.537V227.892ZM207.124 226.676V261.847C207.124 262.876 207.311 263.343 207.685 263.343C208.059 263.343 208.246 262.876 208.246 261.847V226.676C208.246 225.554 208.059 225.18 207.685 225.18C207.311 225.18 207.124 225.554 207.124 226.676ZM226.186 211.523H243.397C254.528 211.523 260.982 217.136 260.982 229.015V229.483C260.982 240.427 255.463 245.758 251.441 245.758V246.881C255.369 246.881 260.982 252.961 260.982 262.969V263.718C260.982 268.675 261.075 272.978 261.917 277H245.08C244.238 272.884 244.145 268.582 244.145 263.53V255.112C244.145 253.803 244.145 253.615 243.21 253.615H243.022V277H226.186V211.523ZM243.022 226.115V239.023H243.21C244.145 239.023 244.145 238.836 244.145 237.527V227.518C244.145 226.302 244.145 226.115 243.21 226.115H243.022ZM24.8812 296.115H17.3981V305.188H24.8812V319.78H17.3981V332.408H24.8812V347H0.561229V281.523H24.8812V296.115ZM30.256 281.523H56.4466L60.5623 347H43.7255V333.53H42.603V347H25.7661L30.256 281.523ZM42.603 318.939H43.7255V310.894H42.603V318.939ZM61.3976 281.523H78.6086C89.7397 281.523 96.1938 287.136 96.1938 299.015V299.483C96.1938 310.427 90.675 315.758 86.6529 315.758V316.881C90.5815 316.881 96.1938 322.961 96.1938 332.969V333.718C96.1938 338.675 96.2873 342.978 97.1292 347H80.2923C79.4505 342.884 79.3569 338.582 79.3569 333.53V325.112C79.3569 323.803 79.3569 323.615 78.4215 323.615H78.2345V347H61.3976V281.523ZM78.2345 296.115V309.023H78.4215C79.3569 309.023 79.3569 308.836 79.3569 307.527V297.518C79.3569 296.302 79.3569 296.115 78.4215 296.115H78.2345ZM130.783 281.523V296.115H122.365V347H105.528V296.115H97.1095V281.523H130.783ZM149.693 281.523H166.53V347H149.693V320.716H148.571V347H131.734V281.523H148.571V306.124H149.693V281.523ZM167.633 338.956C167.633 333.437 170.439 330.537 175.677 330.537C180.822 330.537 183.721 333.624 183.721 339.143C183.721 344.474 180.915 347.468 175.677 347.468C170.439 347.468 167.633 344.474 167.633 338.956Z" fill="white"/>
</svg>
