<svg width="1273" height="579" viewBox="0 0 1273 579" fill="none" xmlns="http://www.w3.org/2000/svg">
<path d="M0.358 4.89998H72.67C119.437 4.89998 146.554 29.266 146.554 72.496V74.461C146.554 115.726 123.76 136.948 106.468 136.948V141.664C122.974 141.664 150.484 166.816 150.484 207.295V212.404C150.484 254.848 121.009 280 72.67 280H0.358V4.89998ZM71.098 66.208V108.652H71.884C75.814 108.652 75.814 107.866 75.814 102.364V72.496C75.814 66.994 75.814 66.208 71.884 66.208H71.098ZM71.098 169.96V218.692H71.884C75.814 218.692 75.814 217.906 75.814 212.404V176.248C75.814 170.746 75.814 169.96 71.884 169.96H71.098ZM154.257 4.89998H226.569C273.336 4.89998 300.453 28.48 300.453 78.391V80.356C300.453 126.337 277.266 148.738 260.367 148.738V153.454C276.873 153.454 300.453 178.999 300.453 221.05V224.194C300.453 245.023 300.846 263.101 304.383 280H233.643C230.106 262.708 229.713 244.63 229.713 223.408V188.038C229.713 182.536 229.713 181.75 225.783 181.75H224.997V280H154.257V4.89998ZM224.997 66.208V120.442H225.783C229.713 120.442 229.713 119.656 229.713 114.154V72.103C229.713 66.994 229.713 66.208 225.783 66.208H224.997ZM318.934 4.89998H428.974L446.266 280H375.526V223.408H370.81V280H300.07L318.934 4.89998ZM370.81 162.1H375.526V128.302H370.81V162.1ZM531.519 4.89998H602.259V280H526.41L508.332 130.66H504.402L520.515 280H449.775V4.89998H525.624L545.274 155.812H549.204L531.519 4.89998ZM607.129 4.89998H679.441C726.208 4.89998 753.325 27.694 753.325 73.675V211.225C753.325 257.599 726.208 280 679.441 280H607.129V4.89998ZM678.262 66.208V218.692H679.048C682.585 218.692 682.585 217.906 682.585 212.404V72.496C682.585 66.994 682.585 66.208 679.048 66.208H678.262ZM904.154 99.22H833.414V68.566C833.414 64.243 832.628 62.278 831.056 62.278C829.484 62.278 828.698 64.243 828.698 68.566V90.574C828.698 101.971 829.484 103.936 859.745 120.835L870.356 126.73C897.08 141.664 904.154 159.742 904.154 205.723V210.832C904.154 257.599 877.037 283.93 829.877 283.93C783.11 283.93 757.958 258.385 757.958 210.832V185.68H828.698V216.334C828.698 220.657 829.484 222.622 831.056 222.622C832.628 222.622 833.414 220.657 833.414 216.727V193.54C833.414 182.143 832.628 180.571 805.511 165.244L792.935 158.17C765.425 142.843 757.958 123.193 757.958 77.212V73.675C757.958 26.122 783.503 0.969985 829.877 0.969985C877.037 0.969985 904.154 27.301 904.154 73.675V99.22ZM970.549 4.89998H1041.29L1037.36 156.598H1042.08L1046.01 4.89998H1091.59L1095.52 156.598H1100.24L1096.31 4.89998H1167.05L1148.19 280H1070.37V182.929H1065.66V280H987.841L970.549 4.89998ZM1272.71 66.208H1241.27V104.329H1272.71V165.637H1241.27V218.692H1272.71V280H1170.53V4.89998H1272.71V66.208ZM146.554 394.22H75.814V363.566C75.814 359.243 75.028 357.278 73.456 357.278C71.884 357.278 71.098 359.243 71.098 363.566V385.574C71.098 396.971 71.884 398.936 102.145 415.835L112.756 421.73C139.48 436.664 146.554 454.742 146.554 500.723V505.832C146.554 552.599 119.437 578.93 72.277 578.93C25.51 578.93 0.358 553.385 0.358 505.832V480.68H71.098V511.334C71.098 515.657 71.884 517.622 73.456 517.622C75.028 517.622 75.814 515.657 75.814 511.727V488.54C75.814 477.143 75.028 475.571 47.911 460.244L35.335 453.17C7.825 437.843 0.358 418.193 0.358 372.212V368.675C0.358 321.122 25.903 295.97 72.277 295.97C119.437 295.97 146.554 322.301 146.554 368.675V394.22ZM226.643 299.9H297.383V575H226.643V464.567H221.927V575H151.187V299.9H221.927V403.259H226.643V299.9ZM319.701 299.9H429.741L447.033 575H376.293V518.408H371.577V575H300.837L319.701 299.9ZM371.577 457.1H376.293V423.302H371.577V457.1ZM450.543 299.9H522.855C570.015 299.9 596.739 330.554 596.739 399.329V400.115C596.739 471.248 572.766 494.042 522.069 494.042H521.283V575H450.543V299.9ZM521.283 361.208V432.734H522.069C525.999 432.734 525.999 431.948 525.999 426.446V367.496C525.999 361.994 525.999 361.208 522.069 361.208H521.283ZM702.017 361.208H670.577V399.329H702.017V460.637H670.577V513.692H702.017V575H599.837V299.9H702.017V361.208ZM706.914 299.9H779.226C825.993 299.9 853.11 322.694 853.11 368.675V506.225C853.11 552.599 825.993 575 779.226 575H706.914V299.9ZM778.047 361.208V513.692H778.833C782.37 513.692 782.37 512.906 782.37 507.404V367.496C782.37 361.994 782.37 361.208 778.833 361.208H778.047Z" fill="white"/>
</svg>
