<svg width="1311" height="761" viewBox="0 0 1311 761" fill="none" xmlns="http://www.w3.org/2000/svg">
<path d="M129.886 5.30469V209.169H123.464V5.30469H0.31543V376.937H88.6623L77.4095 175.196H83.8431L96.6861 376.937H155.584L168.427 175.196H174.861L163.608 376.937H251.967V5.30469H129.886Z" fill="black"/>
<path d="M282.472 5.30469L256.773 376.937H353.156V300.469H359.59V376.937H455.96L432.387 5.30469H282.472ZM359.578 172.016V217.666H353.144V172.016H359.578Z" fill="black"/>
<path d="M654.59 279.556V272.747C654.709 259.541 653.996 246.342 652.453 233.226C651.313 223.431 648.863 213.834 645.17 204.691C641.916 196.882 637.189 189.774 631.247 183.753C624.542 177.224 616.889 171.744 608.547 167.501L594.089 159.648C583.723 154.064 575.691 149.529 569.994 146.041C565.484 143.448 561.268 140.376 557.418 136.877C555.047 134.807 553.355 132.07 552.562 129.024C551.965 125.823 551.693 122.57 551.749 119.314V90.05C551.662 87.9167 551.95 85.7847 552.599 83.7506C553.133 82.3669 553.934 81.6507 555.026 81.6507C556.119 81.6507 556.896 82.3669 557.454 83.7506C558.072 85.7865 558.343 87.912 558.255 90.0379V130.869H654.626V96.8836C654.626 65.8192 645.882 41.9119 628.394 25.1619C610.906 8.41191 585.924 0.0247637 553.448 0.000488281C521.669 0.000488281 497.391 8.20152 480.615 24.6036C463.839 41.0057 455.451 65.0868 455.451 96.8471V101.557C455.312 114.85 456.013 128.139 457.551 141.344C458.682 151.418 461.202 161.286 465.041 170.669C468.449 178.821 473.456 186.208 479.765 192.395C486.756 199.051 494.587 204.763 503.06 209.388L520.188 218.819C529.462 224.054 536.689 228.242 541.868 231.381C545.949 233.7 549.729 236.512 553.121 239.756C555.173 241.758 556.653 244.273 557.406 247.039C557.994 250.147 558.263 253.307 558.207 256.47V287.348C558.321 289.403 558.05 291.462 557.406 293.417C557.245 293.939 556.924 294.397 556.488 294.726C556.052 295.055 555.524 295.238 554.978 295.25C553.91 295.25 553.109 294.558 552.55 293.162C551.915 291.13 551.64 289.002 551.737 286.875V246.056H455.366V279.556C455.366 311.324 463.665 335.494 480.263 352.066C496.861 368.638 521.256 376.928 553.448 376.937C585.924 376.937 610.91 368.557 628.406 351.799C645.902 335.041 654.63 310.96 654.59 279.556Z" fill="black"/>
<path d="M860.186 279.556V272.747C860.306 259.541 859.592 246.342 858.05 233.226C856.909 223.431 854.46 213.834 850.767 204.691C847.513 196.882 842.786 189.774 836.843 183.753C830.138 177.224 822.485 171.744 814.144 167.501L799.686 159.648C789.287 154.08 781.255 149.553 775.59 146.065C771.081 143.473 766.864 140.4 763.015 136.902C760.644 134.831 758.952 132.094 758.159 129.048C757.562 125.847 757.289 122.594 757.346 119.338V90.05C757.248 87.9229 757.524 85.7951 758.159 83.7627C758.693 82.379 759.494 81.6629 760.587 81.6629C761.679 81.6629 762.456 82.379 763.015 83.7627C763.633 85.7987 763.903 87.9242 763.816 90.05V130.881H860.186V96.8957C860.186 65.8313 851.442 41.9241 833.954 25.1741C816.466 8.42405 791.48 0.0328555 758.997 0.000488281C727.217 0.000488281 702.939 8.20152 686.163 24.6036C669.387 41.0057 660.999 65.0868 660.999 96.8471V101.557C660.876 114.851 661.594 128.14 663.148 141.344C664.278 151.418 666.799 161.286 670.638 170.669C674.046 178.821 679.052 186.208 685.362 192.395C692.353 199.051 700.184 204.763 708.657 209.388L725.785 218.819C735.059 224.054 742.289 228.242 747.477 231.381C751.553 233.702 755.328 236.515 758.717 239.756C760.774 241.755 762.254 244.271 763.002 247.039C763.591 250.147 763.859 253.307 763.804 256.47V287.348C763.918 289.403 763.646 291.462 763.002 293.417C762.842 293.939 762.521 294.397 762.085 294.726C761.649 295.055 761.121 295.238 760.575 295.25C759.506 295.25 758.705 294.558 758.147 293.162C757.512 291.13 757.236 289.002 757.334 286.875V246.056H660.963V279.556C660.963 311.324 669.262 335.494 685.86 352.066C702.458 368.638 726.82 376.928 758.948 376.937C791.424 376.937 816.409 368.557 833.906 351.799C851.402 335.041 860.162 310.96 860.186 279.556Z" fill="black"/>
<path d="M962.977 5.30469H866.606V376.937H962.977V5.30469Z" fill="black"/>
<path d="M1070.6 5.30469V270.222H1064.17V5.30469H967.797L991.346 376.937H1141.27L1166.97 5.30469H1070.6Z" fill="black"/>
<path d="M1268.16 294.121V222.448H1311V139.633H1268.16V88.1323H1311V5.30469H1171.79V376.937H1311V294.121H1268.16Z" fill="black"/>
<path d="M430.761 735.059C439.645 726.631 446.43 716.238 450.571 704.715C455.038 692.674 457.272 678.801 457.272 663.095V480.362C457.272 464.987 455.038 451.288 450.571 439.264C446.432 427.739 439.647 417.345 430.761 408.919C421.581 400.474 410.729 394.051 398.908 390.07C386.405 385.708 372.126 383.527 356.07 383.527C340.362 383.527 326.443 385.623 314.312 389.815C302.836 393.605 292.325 399.856 283.516 408.13C274.866 416.595 268.354 426.996 264.518 438.475C260.229 450.701 258.085 464.664 258.085 480.362V663.07C258.085 678.777 260.229 692.735 264.518 704.946C268.387 716.483 274.892 726.96 283.516 735.545C292.262 743.973 302.785 750.335 314.312 754.164C326.451 758.347 340.37 760.439 356.07 760.439C372.142 760.439 386.421 758.258 398.908 753.897C410.733 749.929 421.587 743.51 430.761 735.059ZM356.337 678.255C355.791 677.886 355.409 677.321 355.269 676.677C355.087 675.985 354.905 675.111 354.735 674.067C354.544 672.863 354.455 671.645 354.468 670.426V473.553C354.442 472.152 354.532 470.751 354.735 469.365C354.849 468.567 355.027 467.78 355.269 467.01C355.467 466.466 355.843 466.004 356.337 465.699C356.731 465.407 357.196 465.227 357.684 465.178C358.266 465.14 358.84 465.326 359.287 465.699C359.65 466.07 359.924 466.518 360.088 467.01C360.323 467.781 360.502 468.568 360.622 469.365C360.819 470.752 360.908 472.152 360.889 473.553V670.402C360.896 671.621 360.807 672.838 360.622 674.043C360.44 675.087 360.27 675.961 360.088 676.653C359.965 677.24 359.689 677.785 359.287 678.231C358.842 678.608 358.266 678.796 357.684 678.752C357.197 678.716 356.73 678.544 356.337 678.255Z" fill="black"/>
<path d="M560.064 755.135V622.409H561.132C563.985 622.409 565.587 622.858 565.988 623.732C566.388 624.606 566.522 627.009 566.522 630.905V678.68C566.522 693.196 566.789 706.649 567.323 719.037C567.827 731.176 569.35 743.251 571.875 755.135H668.258C665.742 743.335 664.22 731.346 663.706 719.292C663.172 707.082 662.905 693.9 662.905 679.748V675.499C663.068 662.542 661.247 649.635 657.503 637.229C654.49 627.067 649.99 617.406 644.15 608.56C639.479 601.46 633.477 595.331 626.476 590.511C620.058 586.263 613.989 584.139 608.268 584.139V577.767C613.989 577.767 620.058 575.906 626.476 572.183C632.893 568.461 638.785 562.712 644.15 554.936C650.026 546.014 654.527 536.259 657.503 525.999C661.072 514.509 662.86 500.972 662.868 485.387V482.741C662.868 448.755 654.12 423.715 636.624 407.621C619.128 391.526 594.324 383.503 562.213 383.551H463.693V755.135H560.064ZM560.064 539.594V466.331H561.132C563.985 466.331 565.587 466.78 565.988 467.654C566.472 469.831 566.652 472.066 566.522 474.293V531.097C566.522 534.989 566.344 537.376 565.988 538.259C565.624 539.157 564.021 539.594 561.132 539.594H560.064Z" fill="black"/>
<path d="M765.661 755.135V610.733H772.083V755.135H873.807L842.549 569.319L873.807 383.503H772.083V528.439H765.661V383.503H669.278V755.135H765.661Z" fill="black"/>
<path d="M870.589 480.349V485.071C870.461 498.365 871.166 511.653 872.702 524.858C873.839 534.927 876.359 544.791 880.191 554.171C883.608 562.318 888.614 569.704 894.916 575.897C901.906 582.554 909.737 588.267 918.21 592.89L935.338 602.309C944.629 607.552 951.859 611.744 957.03 614.884C961.11 617.194 964.886 620.003 968.271 623.246C970.331 625.243 971.811 627.759 972.556 630.529C973.15 633.632 973.419 636.789 973.357 639.948V670.838C973.476 672.894 973.204 674.953 972.556 676.907C972.399 677.431 972.079 677.891 971.642 678.221C971.205 678.55 970.675 678.732 970.128 678.74C969.06 678.74 968.259 678.036 967.701 676.64C967.075 674.61 966.804 672.487 966.899 670.365V629.558H870.517V663.07C870.517 694.822 878.82 718.989 895.426 735.569C912.032 752.149 936.39 760.439 968.502 760.439C1000.98 760.439 1025.96 752.064 1043.46 735.314C1060.96 718.564 1069.7 694.482 1069.7 663.07V656.261C1069.82 643.051 1069.1 629.848 1067.55 616.728C1066.44 606.94 1064.01 597.347 1060.33 588.205C1057.08 580.397 1052.35 573.288 1046.41 567.267C1039.71 560.747 1032.06 555.279 1023.72 551.051L1009.26 543.198C998.914 537.631 990.882 533.096 985.168 529.592C980.661 526.996 976.444 523.924 972.592 520.428C970.227 518.353 968.536 515.618 967.737 512.575C967.151 509.372 966.882 506.12 966.936 502.865V473.552C966.843 471.426 967.114 469.3 967.737 467.265C968.271 465.881 969.072 465.177 970.165 465.177C971.257 465.177 972.046 465.881 972.592 467.265C973.216 469.3 973.487 471.426 973.394 473.552V514.383H1069.78V480.398C1069.78 449.342 1061.03 425.438 1043.53 408.688C1026.04 391.938 1001.06 383.559 968.599 383.551C936.827 383.551 912.55 391.752 895.765 408.154C878.981 424.556 870.589 448.621 870.589 480.349Z" fill="black"/>
<path d="M1104.65 413.192C1095.3 423.08 1088.39 435.513 1083.92 450.491C1079.44 465.469 1077.2 483.109 1077.19 503.411V534.969C1077.19 555.514 1079.31 573.405 1083.53 588.642C1087.75 603.879 1094.41 616.631 1103.5 626.9C1112.58 637.168 1124.41 644.856 1139 649.961C1153.6 655.067 1171.4 657.608 1192.42 657.584C1213.41 657.584 1231.45 654.982 1246.56 649.779C1261.66 644.576 1273.94 636.889 1283.41 626.718C1292.88 616.571 1299.85 603.948 1304.32 588.848C1308.8 573.749 1311.04 556.428 1311.05 536.887V503.387C1311.05 483.845 1308.68 466.65 1303.95 451.802C1299.7 437.805 1292.27 424.978 1282.26 414.32C1272.54 404.157 1260.2 396.47 1245.21 391.259C1230.22 386.048 1212.35 383.478 1191.6 383.551C1171.63 383.551 1154.48 386.023 1140.16 390.967C1125.83 395.912 1114 403.32 1104.65 413.192ZM1227.25 423.848C1235.94 426.33 1243.82 431.057 1250.1 437.552C1256.11 443.904 1260.59 452.154 1263.54 462.301C1266.48 472.448 1267.96 484.755 1267.96 499.223V541.475C1267.96 555.943 1266.48 568.251 1263.54 578.398C1260.59 588.545 1256.11 596.859 1250.1 603.341C1243.85 609.95 1235.97 614.804 1227.25 617.42C1218.05 620.333 1206.92 621.794 1193.86 621.802C1180.8 621.81 1169.66 620.35 1160.45 617.42C1151.74 614.801 1143.87 609.947 1137.62 603.341C1131.6 596.867 1127.18 588.553 1124.37 578.398C1121.55 568.242 1120.14 555.935 1120.15 541.475V499.223C1120.15 484.755 1121.63 472.448 1124.57 462.301C1127.52 452.154 1131.93 443.904 1137.8 437.552C1144.04 431.004 1151.93 426.269 1160.65 423.848C1170 421.057 1181.07 419.665 1193.86 419.673C1206.95 419.673 1218.09 421.065 1227.3 423.848H1227.25Z" fill="black"/>
<path d="M1143.62 447.08C1138.81 453.06 1135.52 460.108 1134.01 467.629C1132.14 476.642 1131.24 485.831 1131.33 495.036V546.427C1131.23 555.643 1132.2 564.84 1134.21 573.834C1135.85 581.418 1139.35 588.478 1144.38 594.383C1149.67 600.254 1156.35 604.706 1163.8 607.334C1171.9 610.377 1181.94 611.898 1193.94 611.898C1205.95 611.898 1215.93 610.312 1223.89 607.14C1231.25 604.366 1237.83 599.862 1243.08 594.007C1248.11 588.109 1251.72 581.143 1253.64 573.64C1255.93 564.753 1257.03 555.603 1256.91 546.427V526.255H1202V549.838C1202 553.649 1201.37 556.566 1200.09 558.589C1199.43 559.602 1198.52 560.42 1197.43 560.956C1196.35 561.492 1195.15 561.727 1193.94 561.636C1192.77 561.683 1191.61 561.428 1190.57 560.894C1189.53 560.36 1188.64 559.566 1188 558.589C1186.59 556.574 1185.88 553.657 1185.88 549.838V491.577C1185.71 488.45 1186.45 485.341 1188 482.619C1188.61 481.603 1189.49 480.768 1190.53 480.201C1191.58 479.634 1192.76 479.354 1193.94 479.391C1195.17 479.309 1196.39 479.567 1197.47 480.137C1198.56 480.707 1199.46 481.566 1200.09 482.619C1201.5 485.385 1202.16 488.475 1202 491.577V514.408H1256.91V494.988C1257 485.855 1256.17 476.737 1254.41 467.775C1252.97 460.266 1249.74 453.214 1245 447.214C1240.4 441.493 1234 437.115 1225.81 434.081C1217.62 431.046 1207 429.525 1193.94 429.517C1181.4 429.517 1171.04 431.038 1162.86 434.081C1154.68 437.123 1148.26 441.457 1143.62 447.08Z" fill="black"/>
<path d="M163.304 384.62L174.545 586.348H168.124L155.281 384.62H96.3706L83.5277 586.348H77.1062L88.3468 384.62H0V756.239H123.149V552.375H129.57V756.239H251.651V384.62H163.304Z" fill="black"/>
</svg>
