<?xml version="1.0" encoding="utf-8"?>
<!-- Generator: Adobe Illustrator 27.7.0, SVG Export Plug-In . SVG Version: 6.00 Build 0)  -->
<svg version="1.1" id="Layer_1" xmlns="http://www.w3.org/2000/svg" xmlns:xlink="http://www.w3.org/1999/xlink" x="0px" y="0px"
	 viewBox="0 0 1310.2 759" style="enable-background:new 0 0 1310.2 759;" xml:space="preserve">
<style type="text/css">
	.st0{fill:#FFFFFF;}
</style>
<g>
	<path class="st0" d="M0,570.8c0-59.5,0-119,0-178.4c0-8.8-1.1-7.7,7.7-7.7c25-0.1,50,0,74.9,0c0.7,0,1.3,0,2,0
		c3.7,0,4.1,0.1,3.9,4.3c-0.5,9.6-0.7,19.3-1.4,28.9c-0.9,12.5-1.5,24.9-2,37.4c-0.3,6.2-0.5,12.3-1,18.5c-1,11.8-1.4,23.6-2,35.4
		c-0.6,12.1-1.4,24.3-2.1,36.4c-0.6,11.6-1.2,23.3-1.8,34.9c-0.1,1.3,0,2.7,0.2,4c0.1,0.7,0.7,1.1,1.4,1.3c1.8,0.4,3-0.3,3.3-2
		c0.3-2,0.6-3.9,0.7-5.9c0.7-10.1,1.3-20.3,1.9-30.4c0.1-2.2,0.1-4.3,0.3-6.5c0.2-2.5,0.4-5,0.6-7.5c0.1-0.7,0.2-1.3,0.2-2
		c0.4-6.6,0.7-13.3,1.1-19.9c0.6-9,1.2-17.9,1.7-26.9c0.4-7,0.8-14,1.3-20.9c0.5-8.5,1.1-16.9,1.6-25.4c0.4-7,0.9-14,1.3-20.9
		c0.7-10.1,1.4-20.3,2.1-30.4c0.1-1.6,0.7-2.1,2.1-2.2c0.8-0.1,1.7-0.1,2.5-0.1c16.8,0,33.6,0,50.5,0c4.6,0,4.7,0.1,5,4.7
		c0.5,8,0.9,16,1.4,23.9c0.3,4.7,0.7,9.3,1,13.9c0.5,7.3,1,14.6,1.6,21.9c0,0.7,0.1,1.3,0.1,2c0.4,9.8,1.1,19.6,1.9,29.4
		c0.4,5.1,0.7,10.3,1,15.5c0.4,7.8,0.8,15.6,1.3,23.4c0.4,6.8,0.9,13.6,1.4,20.4c0.2,2.7,0.4,5.3,0.6,8c0.4,7.6,0.8,15.3,1.2,22.9
		c0.2,4,0.7,8,0.9,11.9c0.1,2.6,1,3.4,3.9,3.2c1-0.1,1.6-0.6,1.6-1.6c-0.1-2.7-0.2-5.3-0.3-8c-0.1-1.2-0.3-2.3-0.3-3.5
		c-0.4-9.3-0.8-18.6-1.3-27.9c-0.4-8.3-1-16.6-1.5-24.9c-0.1-1-0.2-2-0.3-3c-0.4-9.1-0.8-18.3-1.3-27.4c-0.4-8.1-1-16.3-1.6-24.4
		c-0.1-0.8-0.1-1.7-0.1-2.5c-0.3-5.7-0.6-11.3-0.9-17c-0.4-9-0.8-18-1.3-26.9c-0.5-8.5-1-17-1.5-25.4c-0.1-2.3-0.2-4.7-0.2-7
		c0-0.9,0.7-1.6,1.6-1.6c1.2-0.1,2.3-0.1,3.5-0.1c26.1,0,52.3,0,78.4,0c1.2,0,2.3,0,3.5,0.1c1,0.1,1.8,0.9,1.8,2
		c0.1,1.2,0.1,2.3,0.1,3.5c0,119.6,0,239.2,0,358.9c0,2-0.1,4-0.2,6c0,0.9-0.7,1.5-1.6,1.6c-1.3,0.1-2.7,0.1-4,0.1
		c-37.1,0-74.3,0-111.4,0c-1.2,0-2.3,0-3.5-0.1c-1.2-0.1-1.9-0.7-1.9-1.9c-0.1-1.5-0.2-3-0.2-4.5c-0.1-9-0.1-18-0.1-27
		c0-54.5,0-109,0-163.4c0-1.7,0-3.3-0.1-5c-0.1-1.1-0.8-1.7-2-1.8c-1.5-0.1-2.6,0.5-2.8,1.5c-0.2,1.3-0.2,2.7-0.3,4
		c0,6.7-0.1,13.3-0.1,20c0,47,0,94,0,140.9c0,10.8-0.2,21.7-0.3,32.5c0,1.2-0.1,2.3-0.3,3.5c-0.1,0.4-0.6,0.9-1,1
		c-1.1,0.2-2.3,0.2-3.5,0.2c-7,0-14,0-21,0c-30.3,0-60.6,0-90.9-0.1c-1.5,0-3,0-4.5-0.1c-1.8-0.1-2.2-0.6-2.3-2.5
		C0,752.4,0,750.6,0,748.7C0,689.4,0,630.1,0,570.8C0,570.8,0,570.8,0,570.8z"/>
	<path class="st0" d="M0.2,191.3c0-59.3,0-118.6,0-177.9c0-2,0-4,0.1-6c0-0.9,0.7-1.6,1.5-1.7C3,5.6,4.2,5.5,5.4,5.5
		c37.8,0,75.6,0,113.4,0c5.1,0,5.2,0,5.2,5.3c0.1,24.7,0.1,49.3,0.1,74c0,39,0,78,0.1,117c0,1.7,0,3.3,0.1,5c0,0.9,0.3,1.6,1.3,1.9
		c1,0.3,2,0.3,2.9-0.3c0.4-0.3,0.7-0.8,0.7-1.3c0.2-1.7,0.2-3.3,0.3-5c0-18.5,0.1-37,0.1-55.5c0-37.2,0-74.3,0-111.5
		c0-8.3,0.2-16.7,0.3-25c0-1.2,0.1-2.3,0.3-3.5c0.1-0.4,0.6-0.8,1-1c0.4-0.2,1-0.2,1.5-0.2c1.2,0,2.3,0,3.5,0c36.5,0,72.9,0,109.4,0
		c7.5,0,6.8-0.7,6.8,6.6c0.1,71.8,0.1,143.6,0.1,215.4c0,47.7,0,95.3,0,143c0,1.7,0,3.3-0.1,5c-0.1,1.4-0.8,2-2.2,2.1
		c-1,0.1-2,0.1-3,0.1c-26.1,0-52.3,0-78.4,0c-5.4,0-5.4-0.1-5-5.3c0.2-2.7,0.3-5.3,0.4-8c0.5-9.1,1.1-18.3,1.6-27.4
		c0.1-1.2,0.1-2.3,0.2-3.5c0.5-9.5,0.9-19,1.4-28.4c0.4-7.6,1-15.3,1.5-22.9c0-0.7,0.1-1.3,0.1-2c0.4-9.3,0.8-18.6,1.3-27.9
		c0.4-8,1.1-16,1.6-23.9c0-0.5,0.1-1,0.1-1.5c0.4-9.5,0.8-19,1.3-28.5c0.3-5.3,0.6-10.6,1-16c0.1-1.2,0.1-2.3,0.1-3.5
		c0-2.5-0.8-3.2-3.4-2.8c-0.7,0.1-1.3,0.5-1.4,1.2c-0.3,2.6-0.7,5.3-0.9,7.9c-0.6,8.5-1.2,16.9-1.8,25.4c0,0.7-0.1,1.3-0.1,2
		c-0.5,8.5-0.9,17-1.4,25.4c-0.4,6.8-1,13.6-1.5,20.4c0,0.7-0.1,1.3-0.2,2c-0.4,8-0.8,16-1.3,23.9c-0.4,7-1.1,13.9-1.6,20.9
		c0,0.5-0.1,1-0.1,1.5c-0.4,8-0.8,16-1.3,23.9c-0.4,6.8-1,13.6-1.6,20.4c-0.1,1-0.1,2-0.2,3c-0.4,6.6-0.8,13.3-1.2,19.9
		c0,0.7,0,1.4-0.3,2c-0.3,0.5-0.8,1.1-1.3,1.3c-0.8,0.3-1.6,0.3-2.5,0.3c-17.3,0-34.6,0-52,0c-0.7,0-1.3,0-2-0.1
		c-0.9-0.1-1.6-0.7-1.7-1.6c-0.2-1.3-0.4-2.6-0.5-4c-0.6-8.6-1.2-17.3-1.8-25.9c-0.1-1-0.2-2-0.2-3c-0.2-9-1.1-17.9-1.8-26.9
		c-0.5-6.3-0.8-12.6-1.2-18.9c-0.4-7.3-0.7-14.6-1.2-21.9c-0.5-7.6-1.1-15.3-1.7-22.9c-0.4-5.3-0.6-10.6-1-16
		c-0.5-7.5-0.9-15-1.4-22.4c-0.5-8-1.1-15.9-1.6-23.9c-0.2-3.8-0.3-7.7-0.6-11.5c0-0.6-0.3-1.3-0.6-1.9c-0.4-0.8-3.4-1.1-4.2-0.4
		c-0.2,0.2-0.5,0.5-0.5,0.8c-0.1,1.3-0.2,2.7-0.1,4c0.5,9.6,1,19.3,1.6,28.9c0.4,8,0.9,16,1.4,23.9c0.6,10.1,1.1,20.3,1.7,30.4
		c0,0.3,0.1,0.7,0.1,1c0.5,8.6,0.9,17.3,1.4,25.9c0.5,9.1,1.1,18.3,1.6,27.4c0,0.3,0,0.7,0.1,1c0.8,15.3,1.6,30.6,2.4,45.9
		c0.2,3.2,0.4,6.3,0.6,9.5c0.1,1.7-0.7,2.4-2.4,2.5c-1,0.1-2,0.1-3,0.1c-25.8,0-51.6,0-77.4,0c-1.5,0-3,0-4.5-0.3
		c-0.5-0.1-1.2-0.8-1.3-1.3c-0.2-1.3-0.2-2.6-0.2-4c0-8.2,0-16.3,0-24.5C0.2,295.6,0.2,243.4,0.2,191.3
		C0.2,191.3,0.2,191.3,0.2,191.3z"/>
	<path class="st0" d="M462.9,569.7c0.1-59.6,0.2-119.3,0.4-178.9c0-1.8,0.1-3.7,0.2-5.5c0-0.9,0.8-1.5,1.6-1.6
		c1.3-0.1,2.7-0.1,4-0.1c32.1,0,64.3-0.1,96.4-0.1c14.6,0,28.9,2.2,42.6,7.2c13.6,4.9,25.4,12.4,34.7,23.6
		c8,9.5,12.9,20.5,16.1,32.4c2.8,10.7,4,21.6,4.2,32.6c0.1,4.7,0.1,9.3-0.1,14c-0.6,17-4.1,33.3-11.2,48.8
		c-3.9,8.4-8.7,16.1-15.2,22.7c-6.7,6.8-14.6,11.5-24,13.4c-0.3,0.1-0.6,0.2-1,0.2c-2.6,0.6-3,1.2-2.8,3.8c0.1,1.2,0.6,1.9,1.8,2
		c9.4,1.1,16.7,6.2,23.4,12.4c7.3,6.8,12.7,14.9,17,23.9c4,8.3,7,16.9,9.1,25.8c1.7,7.3,2.5,14.8,2.9,22.3c0.1,2.3,0.2,4.7,0.1,7
		c-0.3,15.8,0.5,31.6,1.1,47.5c0.3,7.3,1,14.6,2.4,21.8c0.5,2.8,1,5.6,1.4,8.4c0.2,1.5-0.4,2.3-1.8,2.3c-1.2,0.1-2.3,0.1-3.5,0.1
		c-28.5,0-57,0-85.4,0c-1.3,0-2.7,0-4-0.1c-1.1-0.1-1.9-0.7-2.1-1.8c-0.8-4.3-1.7-8.5-2.3-12.8c-1.3-8.6-1.8-17.2-2.2-25.9
		c-1.2-28.3-0.6-56.6-0.8-84.9c0-1.5,0-3-0.2-4.5c-0.2-1.6-2.8-2.9-4.3-2.1c-0.4,0.2-0.8,0.7-0.8,1.2c-0.1,1.7-0.2,3.3-0.2,5
		c0,31.3,0,62.6,0,94c0,8.8-0.1,17.7-0.1,26.5c0,1.3-0.1,2.7-0.2,4c-0.1,0.7-0.6,1.2-1.3,1.3c-1.2,0.1-2.3,0.2-3.5,0.2
		c-28.8,0-57.6,0-86.4,0c-1.2,0-2.3,0-3.5-0.1c-1.1-0.1-1.8-0.7-1.8-1.9c-0.1-2-0.1-4-0.1-6c-0.1-58.3-0.2-116.6-0.3-174.9
		C463,571.7,463,570.7,462.9,569.7C462.9,569.7,462.9,569.7,462.9,569.7z M560.3,503.2c0,10.3,0,20.6,0,31c0,1.3,0,2.7,0.2,4
		c0.1,0.4,0.5,0.9,0.9,1.1c1.9,0.7,3.9-0.5,4.1-2.4c0.1-1,0.2-2,0.2-3c0-20.3,0-40.6,0-60.9c0-1.2-0.1-2.3-0.2-3.5
		c-0.2-1.3-1.7-2.3-3.4-2.3c-1,0-1.7,0.9-1.8,2.6c-0.1,1.3,0,2.7,0,4C560.3,483.6,560.3,493.4,560.3,503.2z"/>
	<path class="st0" d="M668.8,569.7c0-59.6,0-119.3,0-178.9c0-8.1-0.9-7.1,7.2-7.2c27.6-0.1,55.3-0.1,82.9-0.1c1.7,0,3.3,0,5,0.1
		c1,0,1.8,0.8,1.8,2c0.1,1.7,0.1,3.3,0.1,5c0,43.5,0.1,87,0.1,130.4c0,1.7,0,3.3,0.1,5c0.1,1.7,0.7,2.2,2.6,2.2
		c0.5,0,1.1,0.1,1.5-0.2c0.5-0.3,1.2-0.8,1.2-1.4c0.2-1.6,0.2-3.3,0.2-5c0-34.5,0-69,0-103.4c0-9.7,0-19.3,0-29c0-1.3,0-2.7,0.1-4
		c0.1-0.9,0.7-1.6,1.6-1.6c1.2-0.1,2.3-0.1,3.5-0.1c30.6,0,61.3,0,91.9,0c5.3,0,5.3-0.2,4.3,5.2c-2.4,13.8-4.7,27.6-6.9,41.4
		c-1.8,10.7-3.4,21.4-5.2,32c-1.8,11-3.8,22-5.7,33c-2.4,14.3-4.8,28.6-7.2,42.8c-1.6,9.2-3.1,18.4-4.7,27.6c-0.5,2.8-0.4,5.6,0,8.4
		c2.3,13.3,4.4,26.6,6.7,39.9c1.7,10.2,3.5,20.3,5.2,30.5c1.5,9,3.1,18,4.6,27.1c1.8,10.8,3.6,21.7,5.5,32.5c1.5,9,3,18.1,4.5,27.1
		c1.2,7.4,2.5,14.8,3.7,22.2c0.3,1.8-0.2,2.4-2.1,2.5c-1,0-2,0-3,0c-30.5,0-60.9,0-91.4,0c-5.3,0-5.3,0.1-5.3-5.1
		c0-13-0.1-26-0.1-39c0-31.2,0-62.3,0-93.5c0-1.7,0-3.3-0.2-5c-0.1-0.7-0.7-1.1-1.3-1.3c-0.7-0.1-1.3-0.1-2-0.1
		c-1.2,0.1-1.9,0.6-1.9,1.8c-0.1,1.7-0.1,3.3-0.1,5c0,40.5,0,81-0.1,121.4c0,4.3-0.1,8.7-0.2,13c0,2.1-0.6,2.5-2.8,2.6
		c-1.2,0-2.3,0-3.5,0c-28.1,0-56.3,0-84.4,0c-1.5,0-3,0-4.5-0.1c-1.1-0.1-1.7-0.8-1.8-2c0-1.3,0-2.7,0-4c0-44.3,0-88.6,0-132.9
		C668.7,601,668.7,585.4,668.8,569.7C668.7,569.7,668.8,569.7,668.8,569.7z"/>
	<path class="st0" d="M457.7,572c0,30.5,0,61,0,91.5c0,6.8-0.4,13.6-1.5,20.4c-1.7,10.9-4.7,21.5-9.9,31.3
		c-8.7,16.4-21.7,28-38.4,35.7c-7.6,3.5-15.5,6-23.7,7.6c-1.6,0.3-3.3,0.5-5,0.5c-15.3,0-30.6,0-46,0c-4.2,0-8.2-1.1-12.3-2.2
		c-8.9-2.3-17.3-5.8-25.1-10.8c-13.8-8.8-23.6-20.8-29.9-35.9c-3.9-9.4-6.2-19.3-7.3-29.4c-0.8-6.6-1-13.3-1-19.9
		c0-60.1,0-120.3,0-180.4c0-10,0.9-19.9,3.1-29.7c2-9.3,5.3-18.2,10.1-26.5c7.6-13.1,18.4-22.7,31.8-29.4
		c11.3-5.7,23.3-8.8,35.8-10.3c9-1,18-1.1,26.9-0.7c17.7,0.8,34.5,4.9,50,13.9c17.3,10,29.2,24.4,35.9,43.2c3.4,9.8,5.5,19.9,6,30.2
		c0.2,4.5,0.4,9,0.4,13.5C457.7,513.7,457.7,542.9,457.7,572C457.7,572,457.7,572,457.7,572z M360.2,572.3
		C360.2,572.3,360.3,572.3,360.2,572.3c0.1-4.8,0.1-9.7,0.1-14.5c0-26.8,0-53.6-0.1-80.4c0-2.7-0.2-5.3-0.3-8c0-0.7-0.1-1.4-0.4-1.9
		c-0.3-0.5-0.9-1.1-1.5-1.1c-0.5-0.1-1.3,0.3-1.6,0.8c-0.5,0.8-1,1.8-1.1,2.7c-0.2,2.1-0.2,4.3-0.2,6.5c0,26.1,0,52.3,0,78.4
		c0,37.5,0,74.9,0,112.4c0,2.2,0,4.3,0.2,6.5c0.1,1.3,0.6,2.6,1.1,3.8c0.2,0.6,0.9,1.1,1.6,0.8c0.6-0.2,1.1-0.7,1.4-1.2
		c0.3-0.5,0.4-1.3,0.5-1.9c0.2-2.7,0.4-5.3,0.4-8C360.2,635.5,360.2,603.9,360.2,572.3z"/>
	<path class="st0" d="M408,377.8c-13.7,0-27.3,0-41,0c-8.4,0-7.9,0.8-8-7.7c0-20.7-0.1-41.3-0.1-62c0-1.7,0-3.3-0.1-5
		c-0.1-1.1-0.7-1.8-1.9-1.8c-0.5,0-1.1-0.1-1.5,0.1c-0.5,0.3-1.2,0.8-1.3,1.3c-0.3,1.3-0.3,2.6-0.3,4c0,7-0.1,14-0.1,21
		c0,14.2-0.1,28.3-0.1,42.5c0,0.8,0,1.7,0,2.5c-0.1,5-0.1,5.1-5,5.1c-6.8,0-13.7,0-20.5,0c-21.8,0-43.6-0.1-65.5-0.1
		c-0.5,0-1,0-1.5,0c-4.6-0.1-4.7-0.1-4.4-4.9c0.5-8.3,1.1-16.6,1.7-24.9c0-0.7,0.1-1.3,0.1-2c0.5-7.6,0.8-15.3,1.4-22.9
		c0.4-6.5,1-12.9,1.6-19.4c0-0.5,0.1-1,0.1-1.5c0.4-7.1,0.8-14.3,1.3-21.4c0.5-7.3,1.2-14.6,1.7-21.9c0.4-4.6,0.7-9.3,0.9-14
		c0.5-7.1,0.8-14.3,1.3-21.4c0.5-6.6,1-13.3,1.5-19.9c0.1-1,0.2-2,0.3-3c0.8-12,1.5-23.9,2.3-35.9c0.7-10,1.3-19.9,2.1-29.9
		c0.8-11.5,1.7-22.9,2.6-34.4c0.5-7,0.9-14,1.3-20.9c0.4-5.8,0.8-11.6,1.2-17.4c0.5-6.6,1-13.3,1.5-19.9c0.8-11,1.5-21.9,2.3-32.9
		c0-0.5,0.1-1,0.1-1.5c0.2-1.1,0.8-1.8,2-1.9c1.3-0.1,2.7-0.1,4-0.1c46.1,0,92.3,0,138.4,0c6.5,0,6.1-0.5,6.5,6.3
		c0.5,8.5,1.2,16.9,1.7,25.4c0.4,5.5,0.7,11,1,16.5c0.5,7.8,0.9,15.6,1.4,23.4c0.5,7.8,1.1,15.6,1.6,23.4c0.5,7,0.9,14,1.3,20.9
		c0.6,8.6,1.1,17.3,1.7,25.9c0.1,0.8,0.1,1.7,0.2,2.5c0.9,15.1,1.9,30.3,2.8,45.4c0.4,7.1,0.8,14.3,1.3,21.4
		c0.5,8.3,1.1,16.6,1.7,24.9c0.5,7.6,0.9,15.3,1.4,22.9c0.4,6.6,0.9,13.3,1.3,19.9c0.3,3.8,0.5,7.6,0.7,11.5
		c0.6,8.3,1.1,16.6,1.7,24.9c0.3,5.2,0.6,10.3,0.9,15.5c0.4,8,0.8,16,1.3,24c0.2,2.8,0.4,5.6,0.6,8.5c0.1,2.2,0.3,4.3,0.3,6.5
		c0,1.5-0.6,2.2-2,2.3c-1.5,0.1-3,0.1-4.5,0.1c-13.8,0-27.6,0-41.5,0C408,377.7,408,377.8,408,377.8z M359,195.8
		C359,195.8,359,195.8,359,195.8c0-5.8,0-11.6,0-17.4c0-1.3-0.1-2.6-0.2-4c-0.1-0.8-0.7-1.3-1.7-1.4c-2.4-0.2-3,0.4-3.2,2.7
		c0,0.7,0,1.3,0,2c0,11.6,0,23.2,0,34.8c0,1.2,0,2.3,0.3,3.4c0.1,0.5,0.7,1.2,1.2,1.3c2.8,0.5,3.5-0.2,3.5-2.5c0-1.2,0-2.3,0-3.5
		C359,206.1,359,201,359,195.8z"/>
	<path class="st0" d="M1069.6,137.8c0-41.5,0-83,0-124.4c0-1.7,0-3.3,0.1-5c0.1-2.1,0.7-2.7,2.6-2.8c1.2-0.1,2.3,0,3.5,0
		c28.3,0,56.6,0,84.9,0c1.5,0,3,0.1,4.5,0.2c0.7,0.1,1.2,0.6,1.2,1.3c0,3-0.1,6-0.3,9c-0.1,2.8-0.3,5.6-0.5,8.5
		c-0.5,7.1-1.1,14.3-1.6,21.4c-0.1,0.7-0.2,1.3-0.2,2c-0.4,7-0.8,14-1.3,20.9c-0.5,6.6-1,13.3-1.6,19.9c0,0.5-0.1,1-0.1,1.5
		c-0.4,7-0.8,14-1.3,20.9c-0.5,7.6-1.2,15.3-1.7,22.9c-0.4,4.8-0.7,9.6-1,14.5c-0.5,7.1-0.9,14.3-1.3,21.4c-0.3,5-0.7,10-1.1,14.9
		c-0.9,12.1-1.8,24.2-2.6,36.4c-0.5,6.8-0.9,13.6-1.4,20.4c-0.5,7.1-1,14.3-1.5,21.4c-0.5,7.1-1,14.3-1.5,21.4
		c-0.5,7.3-1,14.6-1.5,21.9c-0.5,7.1-1,14.3-1.5,21.4c-0.5,7.5-1.1,14.9-1.6,22.4c-0.5,7.1-1,14.3-1.5,21.4c-0.1,1.3-0.2,2.7-0.4,4
		c-0.2,1.1-0.9,1.7-2.1,1.8c-1.3,0.1-2.7,0.1-4,0.1c-46,0-91.9,0-137.9,0.1c-1,0-2,0-3,0c-3.2-0.1-3.5-0.4-3.7-3.4
		c-0.7-11.3-1.4-22.6-2.2-33.9c-0.8-12.8-1.7-25.6-2.6-38.4c-0.4-6-0.7-12-1.1-18c-0.9-14.8-1.9-29.6-2.8-44.4
		c-0.5-7.3-0.8-14.6-1.3-21.9c-0.5-8.1-1.1-16.3-1.7-24.4c-0.4-6.1-0.8-12.3-1.2-18.4c-0.8-13-1.5-25.9-2.4-38.9
		c-0.5-7.8-1.1-15.6-1.6-23.4c-0.5-7.5-0.9-15-1.4-22.4c-0.5-7.8-1-15.6-1.6-23.4c0-0.3-0.1-0.7-0.1-1c-0.5-7.6-0.9-15.3-1.4-22.9
		c-0.5-7.6-1-15.3-1.5-22.9c-0.2-4-0.3-8-0.4-12c0-1.7,0.6-2.3,2.4-2.4c1.2-0.1,2.3,0,3.5,0c28.1,0,56.3,0,84.4,0
		c6.8,0,6.2-0.5,6.3,6.2c0.1,8.5,0.3,17,0.3,25.5c0,74,0,147.9,0.1,221.9c0,2.8,0,5.7,0.2,8.5c0.1,1.9,1.6,2.8,3.6,2.1
		c0.4-0.1,0.9-0.6,1-0.9c0.2-0.6,0.2-1.3,0.3-2c0-2.3,0.1-4.7,0.1-7c0-40.6,0-81.3,0-121.9C1069.5,137.8,1069.6,137.8,1069.6,137.8z
		"/>
	<path class="st0" d="M709,245.9c14.2,0,28.3,0,42.5,0c6.3,0,6.3,0,6.3,6.4c0,10.8,0,21.7,0.1,32.5c0,1.8,0,3.7,0.1,5.5
		c0,0.8,0.2,1.7,0.3,2.5c0.2,1,1.2,1.9,2,1.9c0.9,0,1.9-0.8,2.1-1.8c0.3-2,0.6-4,0.6-5.9c0.1-10,0.1-20,0.1-30c0-2.5-0.3-5-0.5-7.5
		c-0.2-2.7-1.3-5.1-3-7.3c-1.9-2.4-4-4.4-6.6-6.1c-4.9-3.1-9.8-6.3-14.8-9.2c-9.7-5.6-19.4-10.9-29.2-16.4
		c-7-3.9-13.6-8.3-19.7-13.5c-10.5-8.8-17.6-19.9-21.7-32.9c-2.3-7.2-3.8-14.5-4.8-21.9c-1.6-11.6-2.2-23.2-2.2-34.9
		c0-5.5,0-11,0.1-16.5c0.2-13.1,2.5-25.8,7.2-38.1c7.7-20.1,21.4-34.6,41.1-43.4c8.7-3.9,17.9-6.2,27.3-7.6
		c13.3-2,26.6-2.2,39.8-0.8c14.2,1.5,27.9,4.9,40.5,11.8c17,9.3,29.1,23,36.3,41c4.4,10.9,6.5,22.3,7.2,34c0.7,13.3,0.3,26.6,0.2,40
		c0,0.7,0,1.3-0.1,2c-0.1,1.2-0.8,1.8-1.9,1.9c-1.2,0.1-2.3,0.1-3.5,0.1c-28.6,0-57.3,0.1-85.9,0.1c-1.3,0-2.7,0-4-0.2
		c-0.7-0.1-1.2-0.6-1.3-1.3c-0.2-1.7-0.3-3.3-0.3-5c-0.1-10.8,0-21.7-0.1-32.5c0-2.5-0.3-5-0.6-7.5c-0.1-0.6-0.5-1.2-0.8-1.8
		c-0.6-0.8-2.1-0.8-2.6,0c-0.4,0.7-0.9,1.5-0.9,2.3c-0.2,1.6-0.2,3.3-0.3,5c0,9.8-0.1,19.7-0.1,29.5c0,1.8,0.1,3.7,0.2,5.5
		c0.1,4.4,1.9,8.1,5.1,11c2.1,1.9,4.3,3.7,6.6,5.3c6.7,4.7,13.8,8.7,21,12.6c8.2,4.5,16.4,8.9,24.6,13.4c6.3,3.4,12.3,7.3,17.7,12
		c8.6,7.4,14.9,16.6,19,27.2c3.1,8,4.9,16.2,6.1,24.7c1.2,8.9,1.9,17.9,2,26.9c0,4,0.4,8,0.4,12c-0.1,7.3-0.1,14.7-0.6,22
		c-1.2,15.5-5.1,30.2-13.2,43.6c-7.6,12.6-18,22.2-31,29c-10.5,5.6-21.8,8.9-33.6,10.6c-9.4,1.3-18.9,2.1-28.4,1.7
		c-12.2-0.5-24.2-2-35.8-5.8c-17.7-5.8-32.1-15.9-42.3-31.7c-5.7-8.8-9.3-18.4-11.7-28.5c-2.3-9.9-3.4-20-3.3-30.2
		c0.1-9.8,0-19.7,0.1-29.5c0-1.3,0-2.7,0.1-4c0.1-1.1,0.7-1.8,1.9-1.9c1.3-0.1,2.7-0.1,4-0.1c14.2,0,28.3,0,42.5,0
		C709,245.9,709,245.9,709,245.9z"/>
	<path class="st0" d="M606,131.8c-14.2,0-28.3,0-42.5,0c-5.9,0-5.8,0.1-5.9-5.7c0-11.8,0-23.7-0.1-35.5c0-2.2,0.2-4.4-1-6.3
		c-0.3-0.5-0.9-1-1.4-1.2c-0.7-0.3-1.7,0.3-2,1.1c-0.4,1.1-0.8,2.2-1,3.3c-0.2,0.8-0.1,1.7-0.1,2.5c0,10.7,0,21.3,0,32
		c0,2.3,0.2,4.6,0.8,6.9c0.6,2.7,1.9,4.9,3.7,7c2.1,2.4,4.6,4.4,7.2,6.1c5,3.2,10.1,6.5,15.3,9.4c10,5.6,20.1,11.1,30.2,16.6
		c7,3.8,13.7,8.2,19.7,13.6c9.9,9,16.1,20.2,19.8,33c2.1,7.2,3.3,14.6,4.2,22c2,16.2,2.4,32.6,1.8,48.9c-0.4,14.2-3,28.1-8.8,41.3
		c-8.7,19.7-23.1,33.5-42.8,41.9c-8.8,3.7-17.9,6.1-27.4,7.4c-9.3,1.3-18.5,2.1-27.9,1.6c-12.2-0.5-24.2-2.1-35.8-5.9
		c-18.4-6.1-33.1-16.8-43.3-33.5c-3.4-5.6-6-11.5-8.1-17.7c-2.7-8.1-4.2-16.4-5.1-24.9c-0.7-6.3-0.9-12.6-0.8-18.9
		c0-8.3,0.1-16.7,0.1-25c0-1.3,0-2.7,0.1-4c0.1-1,0.9-1.8,2-1.9c1.5-0.1,3-0.1,4.5-0.1c22.8,0,45.6,0,68.4,0c5.5,0,11-0.1,16.5-0.1
		c1.3,0,2.7,0.1,4,0.2c0.8,0.1,1.5,0.9,1.6,1.7c0.1,1.5,0.1,3,0.1,4.5c0,11.3,0,22.7,0.1,34c0,1.3,0,2.7,0.1,4
		c0,1.4,0.6,2.6,1.3,3.7c0.6,0.9,2.5,0.8,3-0.2c0.4-0.9,0.8-1.9,0.9-2.8c0.2-1.1,0.2-2.3,0.2-3.5c0-10.7,0.1-21.3,0-32
		c0-2.2-0.3-4.3-0.5-6.5c-0.3-3.3-1.9-6-4.2-8.3c-1.6-1.7-3.4-3.2-5.3-4.6c-3.3-2.3-6.6-4.5-10.1-6.5c-11.3-6.4-22.6-12.8-33.9-19.2
		c-8-4.5-15.6-9.6-22.4-15.8c-8.3-7.6-14.2-16.7-18-27.2c-3.5-9.6-5.5-19.5-6.5-29.7c-1.6-14.8-2.1-29.6-1.7-44.4
		c0.3-12.4,1.9-24.5,5.8-36.4c5.2-16,14.2-29.3,27.8-39.3c6.4-4.7,13.3-8.2,20.7-10.9c6.9-2.5,14-4.1,21.3-5.2
		c13.3-2,26.6-2.2,39.8-0.8c13.7,1.4,26.9,4.6,39.2,11c18.4,9.6,31.1,24.2,38.4,43.5c3.4,8.9,5.2,18.2,6.2,27.7
		c0.6,5.7,0.7,11.3,0.7,17c0,8.5-0.1,17-0.1,25.5c0,6.4,0.1,6.1-5.9,6.1c-14.3,0-28.6,0-43,0C606,131.8,606,131.8,606,131.8z"/>
	<path class="st0" d="M918.7,629.5c14.2,0,28.3,0,42.5,0c5.9,0,5.7-0.2,5.7,5.8c0,11.2,0,22.3,0,33.5c0,2.5,0.2,5,0.9,7.4
		c0.1,0.5,0.4,0.9,0.6,1.3c0.5,0.9,2.1,1.1,2.5,0.2c0.5-1,1-2.1,1.2-3.2c0.2-1.3,0.2-2.7,0.2-4c0-10.2,0-20.3,0-30.5
		c0-2-0.1-4-0.2-6c-0.3-4.1-1.9-7.8-5.1-10.5c-2.2-2-4.5-4-7-5.6c-6.9-4.3-13.9-8.5-21-12.6c-6.3-3.7-12.8-7.1-19.2-10.7
		c-7.9-4.4-15.4-9.3-22.2-15.2c-8.7-7.6-15.1-16.8-19.2-27.6c-2.9-7.6-4.8-15.6-6-23.7c-2.3-16.2-2.8-32.5-2.7-48.8
		c0.1-9.1,0.7-18.3,2.7-27.3c2.4-11.5,6.4-22.4,13-32.2c9-13.2,21-22.6,35.8-28.5c9.5-3.8,19.3-6,29.5-7.1c9.3-1,18.6-1,27.9-0.5
		c12.7,0.6,25.1,2.9,37,7.6c15.9,6.3,29,16.2,38.5,30.5c6,9,9.9,18.8,12.3,29.3c2.1,9.1,3.1,18.4,3.1,27.7c0,10.5,0,21,0,31.5
		c0,0.8,0,1.7-0.1,2.5c-0.1,1.1-0.8,1.9-1.9,1.9c-1.3,0.1-2.7,0.1-4,0.1c-28.3,0-56.6,0-84.9,0.1c-6.5,0-6.3,0.3-6.3-6.3
		c0-10.7,0-21.3-0.1-32c0-1.8,0-3.7-0.1-5.5c-0.1-1.3-0.5-2.6-1-3.8c-0.2-0.5-0.9-0.9-1.5-1.1c-0.6-0.2-1.6,0.6-1.8,1.4
		c-0.6,2.3-1.1,4.5-1.1,6.9c0,9.7-0.1,19.3,0,29c0,3,0.5,6,0.9,8.9c0.3,2,1.2,3.8,2.4,5.4c1.8,2.4,4.1,4.3,6.5,6.1
		c4.8,3.6,9.9,6.7,15.2,9.7c10,5.6,20.1,11.1,30.2,16.6c5.1,2.8,10.1,5.7,14.9,9.1c12.4,9,20.9,20.8,25.6,35.4
		c2.6,8,4.1,16.1,5.1,24.4c2,17.1,2.2,34.2,1.7,51.4c-0.4,12-2.5,23.8-6.7,35.2c-7.6,20.3-21.2,35.1-40.7,44.6
		c-8.1,3.9-16.7,6.5-25.6,8.2c-1.6,0.3-3.3,0.3-5,0.3c-15.5,0-31,0-46.5,0c-4.4,0-8.6-1.1-12.8-2.2c-8.9-2.3-17.3-5.8-25.1-10.8
		c-13.6-8.8-23.2-20.9-29.3-35.8c-4.4-10.9-6.6-22.3-7.5-34c-1-14.2-0.5-28.3-0.5-42.5c0-0.8,0.1-1.7,0.2-2.5
		c0.1-0.8,0.8-1.5,1.7-1.5c1.5-0.1,3-0.1,4.5-0.1C890.4,629.6,904.6,629.6,918.7,629.5C918.7,629.6,918.7,629.6,918.7,629.5z"/>
	<path class="st0" d="M1240.4,377.8c-20.8,0-41.6,0-62.4,0c-1.7,0-3.3-0.1-5-0.2c-1.1-0.1-1.8-0.8-1.9-2c-0.1-1.8-0.1-3.7-0.1-5.5
		c0-59.1,0-118.3,0-177.4c0-52.6-0.1-105.3-0.2-157.9c0-8.2,0.1-16.3,0.2-24.5c0-1.2,0.1-2.3,0.2-3.5c0.1-0.7,0.6-1.2,1.4-1.2
		c1.2-0.1,2.3-0.2,3.5-0.2c43,0,85.9,0,128.9,0c1,0,2,0,3,0.1c1.2,0.1,1.9,0.7,2,1.8c0.1,1.3,0.1,2.7,0.1,4c0,23.8,0,47.6,0,71.5
		c0,1.5-0.1,3-0.3,4.5c-0.1,0.7-0.6,1.2-1.3,1.3c-1.3,0.1-2.7,0.1-4,0.2c-10.3,0-20.6,0.1-31,0.1c-5.7,0-5.7-0.6-5.7,5.8
		c0,13.2,0,26.3,0,39.5c0,1.2,0,2.3,0.1,3.5c0.1,1.2,0.8,1.8,1.9,1.9c1.5,0.1,3,0.1,4.5,0.1c10,0,20,0.1,30,0.1c1.3,0,2.7,0,4,0.1
		c0.8,0,1.5,0.8,1.6,1.7c0.1,1.3,0.2,2.7,0.2,4c0,7.5,0.1,15,0.1,22.5c0,16,0,32-0.1,48c0,1.5,0,3-0.1,4.5c-0.1,1.9-0.6,2.4-2.4,2.5
		c-1.3,0.1-2.7,0-4,0.1c-10,0-20,0.1-30,0.1c-1.3,0-2.7,0-4,0.1c-0.8,0-1.6,0.8-1.6,1.6c-0.1,1-0.2,2-0.2,3c0,3.5,0,7,0,10.5
		c0,15.8,0,31.6,0,47.5c0,0.7,0,1.3,0,2c0,6.5-0.3,6.1,6.4,6.2c9.5,0.1,19,0.1,28.5,0.2c8.1,0.1,7.3-0.8,7.3,7.2c0,23.3,0,46.6,0,70
		c0,6.9,0.2,6.3-6.2,6.3c-21.1,0-42.3,0-63.4,0C1240.4,377.7,1240.4,377.7,1240.4,377.8z"/>
	<path class="st0" d="M962.8,191.6c0,59.8,0,119.6,0,179.4c0,7.2,0.6,6.8-6.7,6.8c-28.3,0-56.6,0-84.9-0.1c-5.3,0-5.4,0-5.4-5.7
		c0-55.5,0-110.9-0.1-166.4c0-41.1-0.1-82.3-0.1-123.4c0-23.5,0.1-47,0.2-70.5c0-6.6-0.4-6.2,6.3-6.2c28.3,0,56.6,0,84.9,0
		c6,0,5.8-0.3,5.8,5.7c0,38.8,0,77.6,0,116.4C962.9,148.9,962.9,170.3,962.8,191.6C962.9,191.6,962.9,191.6,962.8,191.6z"/>
	<path class="st0" d="M1310.2,520.9c0,8.3-0.1,16.7,0,25c0.1,14.3-1.9,28.2-5.7,41.9c-3,10.7-7.4,20.7-13.7,29.8
		c-9,13.1-21,22.6-35.5,29.1c-9.8,4.4-20,7.2-30.6,9c-12.5,2.1-25.2,2.5-37.8,2.3c-7-0.1-14-0.4-20.9-1.3
		c-14-1.8-27.5-5.1-40.1-11.6c-15-7.7-26.3-19.1-34.3-33.9c-5.3-9.7-8.7-20.2-11-31c-1.6-7.8-2.6-15.7-3.3-23.7
		c-0.8-9-0.9-18-0.9-27c0-12.5-0.3-25,0.1-37.5c0.6-15.8,2.9-31.5,8.2-46.5c5.4-15.4,13.8-28.8,26.6-39.2
		c7.9-6.5,16.8-11.4,26.4-14.9c10.7-3.9,21.8-6,33.1-7.2c10.8-1.1,21.6-1.2,32.4-0.7c14.5,0.6,28.8,3,42.5,8
		c14.8,5.4,27.9,13.4,38.4,25.3c7.6,8.6,13.3,18.3,17.3,29c4.4,11.6,6.9,23.6,8.1,35.9c0.5,4.8,0.6,9.6,0.6,14.5
		C1310.1,504.6,1310.2,512.8,1310.2,520.9z M1267.1,521c0-6.3,0-12.7,0-19c0-8.8-0.5-17.6-1.7-26.4c-1.1-7.8-3-15.3-6.2-22.5
		c-5.6-12.6-14.6-21.7-27.5-26.8c-8.3-3.3-16.9-4.8-25.8-5.4c-7.3-0.5-14.6-0.5-22-0.2c-8.2,0.3-16.2,1.7-24,4
		c-8,2.3-15,6.3-20.9,12.2c-5,5-8.7,10.9-11.4,17.4c-4.3,10.3-6.4,21-6.8,32c-0.9,21.1-0.5,42.3-0.3,63.4c0.1,7.3,0.8,14.6,2.3,21.8
		c1.6,7.7,3.8,15.2,7.7,22c5.4,9.6,13.1,16.7,23.2,21.2c9.7,4.3,20,6,30.5,6.6c5.6,0.3,11.3,0.2,17,0.1c8.5-0.2,16.9-1.5,25.1-4
		c5.8-1.7,11.2-4.3,16.1-7.9c7.9-5.7,13.4-13.3,17.2-22.2c3.8-8.8,5.8-18.1,6.6-27.5c0.7-7.6,1.2-15.3,1-22.9
		C1267,531.6,1267.1,526.3,1267.1,521z"/>
	<path class="st0" d="M1130.4,520.6c0-9.3,0-18.7,0-28c0-8.9,1.1-17.6,3.1-26.2c1.3-5.9,3.7-11.4,7.2-16.4
		c3.8-5.5,8.7-9.6,14.5-12.8c6.5-3.5,13.5-5.5,20.8-6.6c9.1-1.4,18.3-1.4,27.4-0.9c6,0.4,11.9,1.2,17.7,2.9
		c4.3,1.2,8.5,2.9,12.4,5.2c10.6,6.1,16.9,15.4,20,26.9c1.9,7.2,3,14.7,3.1,22.2c0.1,8,0.1,16,0.1,24c0,0.8-0.1,1.7-0.2,2.5
		c-0.1,0.7-0.5,1.2-1.3,1.3c-1,0.1-2,0.2-3,0.2c-15.5,0-31,0-46.5,0c-4.5,0-4.6-0.1-4.6-4.8c0-5.8-0.1-11.7-0.1-17.5
		c0-2.4-0.3-4.7-0.9-6.9c-0.7-2.3-2-4.1-4.4-5.1c-2.8-1.2-6.2,0.3-7.6,2.1c-1.2,1.5-1.8,3.2-2.1,5c-0.3,1.6-0.4,3.3-0.4,5
		c0,18.8,0,37.6,0,56.5c0,2.5,0.2,5,1.1,7.4c1.1,2.8,3,4.8,6.3,4.9c3.4,0.2,6.1-1.6,7.2-5c0.7-2.2,1-4.5,1-6.9
		c0-6.2,0-12.3,0.1-18.5c0-4.7,0.1-4.7,4.7-4.7c15.3,0,30.6,0,46,0c1,0,2,0,3,0.1c0.9,0.1,1.6,0.7,1.7,1.6c0.1,0.8,0.1,1.7,0.1,2.5
		c0,6.5,0,13,0,19.5c0,8-1.1,15.9-3.1,23.7c-2.4,9-6.6,17.1-13.3,23.6c-5.2,5.1-11.4,8.6-18.2,11.1c-5.5,2-11.2,3.2-17,3.7
		c-4.8,0.4-9.6,0.9-14.5,0.6c-8.7-0.4-17.3-1.1-25.5-4c-9.1-3.2-17.1-8.1-23.1-15.9c-4.1-5.4-6.9-11.4-8.4-18
		c-2-8.8-3.1-17.7-3.1-26.7C1130.5,538.9,1130.4,529.8,1130.4,520.6C1130.4,520.6,1130.4,520.6,1130.4,520.6z"/>
</g>
</svg>
