<svg width="454" height="216" viewBox="0 0 454 216" fill="none" xmlns="http://www.w3.org/2000/svg">
<path d="M69.0617 2.99999V118.2H72.6617V2.99999H141.062V213H91.5617L97.8617 99H94.2617L87.0617 213H54.0617L46.8617 99H43.2617L49.5617 213H0.0617188V2.99999H69.0617ZM144.788 55.5C144.788 37.3 149.488 23.5 158.888 14.1C168.288 4.69999 181.888 -1.14441e-05 199.688 -1.14441e-05C217.888 -1.14441e-05 231.888 4.79999 241.688 14.4C251.488 24 256.388 37.7 256.388 55.5V160.2C256.388 178.2 251.488 192 241.688 201.6C231.888 211.2 217.888 216 199.688 216C181.888 216 168.288 211.3 158.888 201.9C149.488 192.3 144.788 178.4 144.788 160.2V55.5ZM198.788 164.4C198.788 167.6 199.388 169.2 200.588 169.2C201.788 169.2 202.388 167.6 202.388 164.4V51.6C202.388 48.4 201.788 46.8 200.588 46.8C199.388 46.8 198.788 48.4 198.788 51.6V164.4ZM315.125 2.99999C333.125 2.99999 347.025 7.59999 356.825 16.8C366.625 25.8 371.525 39.9 371.525 59.1V60.6C371.525 69.4 370.525 77.1 368.525 83.7C366.525 90.1 364.025 95.5 361.025 99.9C358.025 104.3 354.725 107.6 351.125 109.8C347.525 111.8 344.125 112.8 340.925 112.8V116.4C344.125 116.4 347.525 117.6 351.125 120C354.725 122.4 358.025 125.8 361.025 130.2C364.025 134.6 366.525 140 368.525 146.4C370.525 152.8 371.525 160 371.525 168V170.4C371.525 178.4 371.625 185.9 371.825 192.9C372.225 199.9 373.125 206.6 374.525 213H320.525C319.125 206.4 318.225 199.6 317.825 192.6C317.625 185.6 317.525 178 317.525 169.8V142.8C317.525 140.6 317.425 139.3 317.225 138.9C317.025 138.3 316.125 138 314.525 138H313.925V213H259.925V2.99999H315.125ZM313.925 91.2H314.525C316.125 91.2 317.025 91 317.225 90.6C317.425 90 317.525 88.6 317.525 86.4V54.3C317.525 52.3 317.425 51.1 317.225 50.7C317.025 50.1 316.125 49.8 314.525 49.8H313.925V91.2ZM429.062 49.8V78.9H453.062V125.7H429.062V166.2H453.062V213H375.062V2.99999H453.062V49.8H429.062Z" fill="black"/>
</svg>
